<svg width="11" height="10" viewBox="0 0 11 10" fill="none" xmlns="http://www.w3.org/2000/svg">
<path d="M0.211043 8.5267C-0.0414524 8.7413 -0.0721727 9.11996 0.142427 9.37245C0.357026 9.62495 0.735681 9.65567 0.988176 9.44107L0.599609 8.98389L0.211043 8.5267ZM10.5483 1.08514C10.5751 0.754854 10.3291 0.465382 9.99877 0.438586L4.61646 0.001918C4.28617 -0.0248778 3.9967 0.221149 3.96991 0.551434C3.94311 0.88172 4.18914 1.17119 4.51942 1.19799L9.3037 1.58614L8.91555 6.37042C8.88876 6.7007 9.13478 6.99018 9.46507 7.01697C9.79536 7.04377 10.0848 6.79774 10.1116 6.46746L10.5483 1.08514ZM0.599609 8.98389L0.988176 9.44107L10.3388 1.4938L9.95026 1.03662L9.56169 0.579438L0.211043 8.5267L0.599609 8.98389Z" fill="#FBFBFE"/>
</svg>
