<svg width="24" height="21" viewBox="0 0 24 21" fill="none" xmlns="http://www.w3.org/2000/svg">
<path d="M0.40504 18.9351C-0.0660472 19.3187 -0.13697 20.0116 0.24663 20.4827C0.63023 20.9537 1.32309 21.0247 1.79418 20.6411L1.09961 19.7881L0.40504 18.9351ZM23.9061 2.22016C23.968 1.61581 23.5282 1.07573 22.9238 1.01387L13.0753 0.00574837C12.4709 -0.0561144 11.9309 0.383662 11.869 0.988018C11.8071 1.59237 12.2469 2.13245 12.8513 2.19431L21.6055 3.09042L20.7094 11.8447C20.6475 12.449 21.0873 12.9891 21.6917 13.051C22.296 13.1128 22.8361 12.6731 22.898 12.0687L23.9061 2.22016ZM1.09961 19.7881L1.79418 20.6411L23.5064 2.96113L22.8118 2.10815L22.1172 1.25517L0.40504 18.9351L1.09961 19.7881Z" fill="black"/>
</svg>
