<svg width="18" height="18" viewBox="0 0 18 18" fill="none" xmlns="http://www.w3.org/2000/svg">
<path d="M14.4556 10.7202C13.545 9.64708 12.1694 9.42081 11.1724 10.2052L10.2721 10.9168C9.71317 10.4167 9.1917 9.87971 8.68655 9.28504C8.18256 8.69181 7.74003 8.09296 7.34181 7.46433L8.24331 6.75423C9.24661 5.96273 9.29878 4.64555 8.37024 3.55236L7.16365 2.12889C6.25198 1.05631 4.87485 0.831168 3.8821 1.61526L2.51616 2.69188C1.68311 3.34852 1.49207 4.76056 1.99312 6.56553C2.49127 8.36003 3.59734 10.3273 5.10713 12.1062C7.61043 15.0547 10.8475 17.003 12.9813 16.8434C13.4588 16.8076 13.8586 16.6648 14.1687 16.4202L15.5341 15.3436C16.0561 14.9336 16.3381 14.3691 16.3297 13.7556C16.3224 13.2051 16.0918 12.6474 15.6626 12.1416L14.4556 10.7202ZM14.9077 14.6054L13.5422 15.6815C13.3929 15.8 13.1803 15.8698 12.9099 15.8901C11.4042 16.0027 8.4264 14.5022 5.87776 11.499C4.4544 9.82204 3.41539 7.98049 2.9527 6.3136C2.56889 4.93033 2.64166 3.8248 3.14256 3.42961L4.5085 2.353C4.70677 2.19671 4.91864 2.10912 5.13691 2.09278C5.56081 2.06106 6.01891 2.29545 6.39301 2.73608L7.60002 4.158C8.05995 4.69957 8.30549 5.47192 7.61729 6.01443L6.05706 7.24398L6.26689 7.59565C6.74692 8.39879 7.28654 9.15014 7.91636 9.89118C8.5393 10.6251 9.21409 11.3027 9.92505 11.9054L10.2407 12.1734L11.8004 10.9433C12.3838 10.484 13.1177 10.6585 13.6855 11.3269L14.892 12.7488C15.1739 13.0814 15.3323 13.4456 15.3362 13.7735C15.341 14.0982 15.1963 14.3777 14.9077 14.6054Z" fill="#0C1E21" stroke="#0C1E21" stroke-width="0.4"/>
</svg>
