<svg width="26" height="26" viewBox="0 0 26 26" fill="none" xmlns="http://www.w3.org/2000/svg">
<path d="M8.9997 25.0315C9.09504 25.0909 9.43087 25.2582 9.768 24.9696L23.1532 13.5413C23.3097 13.4074 23.3994 13.2102 23.3994 13C23.3994 12.7899 23.3097 12.5927 23.1532 12.4588L9.768 1.0305C9.6224 0.906133 9.47724 0.866699 9.35157 0.866699C9.18604 0.866699 9.05387 0.935166 8.9997 0.968533C8.78954 1.09767 8.598 1.36937 8.68944 1.7442L11.3479 12.6217C11.4086 12.8692 11.4086 13.1309 11.3479 13.3783L8.68944 24.2559C8.598 24.6307 8.78954 24.9024 8.9997 25.0315Z" fill="url(#paint0_linear_320_12706)"/>
<path d="M5.19961 15.6C6.63555 15.6 7.79961 14.436 7.79961 13C7.79961 11.5641 6.63555 10.4 5.19961 10.4C3.76367 10.4 2.59961 11.5641 2.59961 13C2.59961 14.436 3.76367 15.6 5.19961 15.6Z" fill="url(#paint1_linear_320_12706)"/>
<defs>
<linearGradient id="paint0_linear_320_12706" x1="23.7425" y1="25.1338" x2="2.50741" y2="8.94508" gradientUnits="userSpaceOnUse">
<stop stop-color="#0FB0A4"/>
<stop offset="0.826923" stop-color="#1E8A8A"/>
</linearGradient>
<linearGradient id="paint1_linear_320_12706" x1="7.92073" y1="15.6" x2="3.32159" y2="9.82504" gradientUnits="userSpaceOnUse">
<stop stop-color="#0FB0A4"/>
<stop offset="0.826923" stop-color="#1E8A8A"/>
</linearGradient>
</defs>
</svg>
