<svg width="12" height="12" viewBox="0 0 12 12" fill="none" xmlns="http://www.w3.org/2000/svg">
<path d="M5.83818 11.6695C5.67266 11.6705 5.5106 11.6221 5.37267 11.5306C5.23474 11.4391 5.12718 11.3086 5.0637 11.1558C5.00023 11.0029 4.98372 10.8346 5.01628 10.6723C5.04884 10.51 5.12899 10.3611 5.24651 10.2445L9.66318 5.8362L5.24651 1.42787C5.10999 1.26845 5.03865 1.06339 5.04675 0.85366C5.05486 0.64393 5.1418 0.44498 5.29021 0.296568C5.43862 0.148156 5.63757 0.0612127 5.8473 0.0531117C6.05703 0.0450108 6.2621 0.116349 6.42151 0.252871L11.4215 5.25287C11.5767 5.40901 11.6638 5.62022 11.6638 5.84037C11.6638 6.06053 11.5767 6.27174 11.4215 6.42787L6.42151 11.4279C6.2663 11.5818 6.0568 11.6686 5.83818 11.6695Z" fill="#1E8A8A"/>
<path d="M0.83818 11.6701C0.672659 11.671 0.510602 11.6227 0.372669 11.5312C0.234736 11.4397 0.127176 11.3092 0.0637041 11.1563C0.000231763 11.0034 -0.0162778 10.8351 0.0162802 10.6728C0.0488383 10.5106 0.128989 10.3616 0.246513 10.2451L4.66318 5.83674L0.246513 1.42841C0.0895934 1.27149 0.00143669 1.05866 0.00143669 0.836743C0.00143669 0.614825 0.0895934 0.401996 0.246513 0.245076C0.403433 0.0881567 0.616262 1.65342e-09 0.83818 0C1.0601 -1.65342e-09 1.27293 0.0881567 1.42985 0.245076L6.42985 5.24508C6.58506 5.40121 6.67217 5.61242 6.67217 5.83258C6.67217 6.05273 6.58506 6.26394 6.42985 6.42008L1.42985 11.4201C1.35267 11.4988 1.26063 11.5615 1.15907 11.6044C1.05751 11.6473 0.948436 11.6696 0.83818 11.6701Z" fill="#1E8A8A"/>
</svg>
