<svg width="18" height="18" viewBox="0 0 18 18" fill="none" xmlns="http://www.w3.org/2000/svg">
<g clip-path="url(#clip0_320_2618)">
<path d="M13.0229 4.27336H14.6139C14.7244 4.27336 14.8139 4.18382 14.8139 4.07336V1.48753C14.8139 1.37707 14.7244 1.28753 14.6139 1.28753H11.5592C11.2877 1.27721 7.97793 1.21944 7.12009 4.20665C7.10817 4.23666 6.85563 4.89107 6.83487 6.40787C6.83336 6.5181 6.74431 6.60815 6.63407 6.60845L4.05687 6.6156C3.94663 6.61591 3.85742 6.70536 3.85742 6.8156V9.54725C3.85742 9.65792 3.94729 9.74755 4.05795 9.74725L6.63675 9.74041C6.74741 9.74012 6.83728 9.82974 6.83728 9.94041V17.8C6.83728 17.9105 6.92682 18 7.03728 18H11.189C11.2994 18 11.389 17.9105 11.389 17.8V9.9471C11.389 9.83664 11.4785 9.7471 11.589 9.7471H14.2016C14.312 9.7471 14.4016 9.65756 14.4016 9.5471V6.80721C14.4016 6.69676 14.3121 6.60721 14.2016 6.60721H11.589C11.4785 6.60721 11.389 6.51767 11.389 6.40721V5.61927C11.389 5.00512 11.6725 4.27336 13.0229 4.27336ZM13.4484 7.29461C13.5589 7.29461 13.6484 7.38415 13.6484 7.49461V8.85901C13.6484 8.96947 13.5589 9.05901 13.4484 9.05901H10.8358C10.7254 9.05901 10.6358 9.14856 10.6358 9.25901V17.1119C10.6358 17.2224 10.5463 17.3119 10.4358 17.3119H7.79044C7.67998 17.3119 7.59043 17.2224 7.59043 17.1119V9.2506C7.59043 9.13994 7.50057 9.05031 7.3899 9.0506L4.81111 9.05745C4.70044 9.05774 4.61058 8.96811 4.61058 8.85745V7.5013C4.61058 7.39105 4.6998 7.3016 4.81005 7.3013L7.39431 7.29446C7.50633 7.29417 7.59626 7.20193 7.59373 7.08994L7.59043 6.94421C7.55127 5.18634 7.8258 4.44702 7.83822 4.4116C8.57857 1.83876 11.4055 1.96805 11.5268 1.97493L13.8608 1.97556C13.9713 1.97559 14.0608 2.06513 14.0608 2.17556V3.38596C14.0608 3.49642 13.9712 3.58596 13.8608 3.58596H13.0229C11.2632 3.58596 10.6362 4.63615 10.6362 5.61893V7.09461C10.6362 7.20507 10.7257 7.29461 10.8362 7.29461H13.4484Z" fill="#0C1E21" stroke="#0C1E21" stroke-width="0.3"/>
</g>
<defs>
<clipPath id="clip0_320_2618">
<rect width="18" height="18" fill="white"/>
</clipPath>
</defs>
</svg>
