<svg width="95" height="88" viewBox="0 0 95 88" fill="none" xmlns="http://www.w3.org/2000/svg">
<path d="M93.9891 55.0095C92.1821 52.3539 88.5432 51.6511 85.8794 53.4412L73.7558 61.5548L73.7206 36.3L77.9325 40.2457C78.8281 41.0845 79.9959 41.5462 81.222 41.5462C81.2243 41.5462 81.2269 41.5462 81.2293 41.5462C82.553 41.5443 83.831 40.9895 84.7357 40.0238C85.6147 39.0855 86.0758 37.8612 86.0338 36.5761C85.9919 35.291 85.4519 34.0993 84.5136 33.2203L76.5286 25.7402C75.982 25.2281 75.1238 25.2561 74.6119 25.8027C74.1 26.3493 74.128 27.2073 74.6745 27.7194L82.6595 35.1995C83.0692 35.5833 83.3048 36.1035 83.3232 36.6644C83.3413 37.2253 83.1402 37.7599 82.7563 38.1694C82.3555 38.5973 81.8119 38.8333 81.2252 38.834C81.2241 38.834 81.2231 38.834 81.222 38.834C80.6871 38.834 80.1774 38.6325 79.7865 38.2663L79.7863 38.2661L48.0796 8.56392C47.5571 8.07463 46.7441 8.07538 46.2229 8.56652L14.5986 38.3576C14.1903 38.7424 13.6562 38.9439 13.0952 38.9283C12.5341 38.9116 12.0132 38.6772 11.6284 38.2685C11.2436 37.8601 11.0408 37.3261 11.0577 36.7652C11.0744 36.2041 11.3087 35.6833 11.7171 35.2984L45.705 3.28084C46.5107 2.52177 47.7746 2.51992 48.5823 3.27695L68.4668 21.9044C69.0132 22.4163 69.8714 22.3885 70.3835 21.8418C70.8954 21.2952 70.8674 20.4373 70.321 19.9251L50.4366 1.29772C48.5862 -0.436031 45.6911 -0.432134 43.8455 1.30681L32.9652 11.5564L32.9622 9.72823C32.9615 9.15192 32.7362 8.61049 32.3282 8.20377C31.9209 7.79761 31.3802 7.57403 30.805 7.57403C30.8039 7.57403 30.803 7.57403 30.8019 7.57403L23.0188 7.58498C22.4425 7.58572 21.9012 7.81097 21.4943 8.21899C21.0876 8.62701 20.8638 9.16899 20.8647 9.74548L20.8863 22.9355L9.85755 33.3248C8.92165 34.2063 8.38523 35.3996 8.34683 36.6847C8.30842 37.9698 8.77284 39.1929 9.65438 40.1284C10.5357 41.0643 11.729 41.6009 13.0143 41.6393C13.0634 41.6408 13.1126 41.6415 13.1618 41.6415C14.3929 41.6415 15.5587 41.1795 16.4584 40.3316L20.6608 36.3728L20.6775 48.3018C19.3178 48.1038 17.9422 47.9999 16.5602 47.9999H14.24V47.1868C14.24 44.4572 12.0192 42.2364 9.28959 42.2364H4.95039C2.22081 42.2362 0 44.4569 0 47.1866V68.4351C0 69.1839 0.607109 69.791 1.35598 69.791C2.10484 69.791 2.71195 69.1839 2.71195 68.4351V47.1866C2.71195 45.9524 3.71613 44.9482 4.95039 44.9482H9.2894C10.5237 44.9482 11.5278 45.9524 11.5278 47.1866V49.3557V77.1498V79.2975C11.5278 80.5318 10.5237 81.536 9.2894 81.536H4.95039C3.71613 81.536 2.71195 80.5318 2.71195 79.2975V76.9248C2.71195 76.1759 2.10484 75.5688 1.35598 75.5688C0.607109 75.5688 0 76.1759 0 76.9248V79.2975C0 82.0271 2.22081 84.2479 4.95039 84.2479H9.2894C12.019 84.2479 14.2398 82.0273 14.2398 79.2975V79.1133L34.0978 86.6331C34.1345 86.6471 34.1718 86.6593 34.2096 86.6699C35.073 86.9137 35.936 87.036 36.788 87.036C37.2489 87.036 37.7066 87.0002 38.1598 86.9285L67.3428 82.7218C67.3496 82.7209 67.3563 82.7198 67.3632 82.7187C69.8443 82.3225 72.185 81.2736 74.1319 79.6857C74.1488 79.672 74.1655 79.6577 74.1816 79.643L93.0352 62.6863C95.2308 60.7371 95.6407 57.4368 93.9891 55.0095ZM30.251 10.2869L30.2573 14.1073L23.594 20.3844L23.5774 10.296L30.251 10.2869ZM47.1551 11.4139L71.0049 33.756L71.0463 63.368L67.2071 65.9374L63.1416 65.7094L63.0342 64.6295C62.6558 60.8262 59.8481 57.7667 56.1355 57.0366L56.111 39.4198C56.1092 38.0679 55.0085 36.9693 53.6568 36.9693C53.6557 36.9693 53.6548 36.9693 53.6535 36.9693L40.7294 36.9875C40.0739 36.9884 39.4578 37.2445 38.9951 37.7087C38.5321 38.1727 38.2778 38.7895 38.2787 39.4449L38.3002 54.8046C35.7402 54.2194 33.2958 53.2529 31.0105 51.916C30.7253 51.7492 30.4373 51.5882 30.1469 51.4316C30.0337 51.3705 29.9187 51.3132 29.8046 51.2536C29.6279 51.1614 29.4517 51.0686 29.2732 50.9801C29.131 50.9096 28.9872 50.8428 28.844 50.7747C28.692 50.7025 28.5403 50.6296 28.3872 50.56C28.2313 50.4894 28.0742 50.422 27.9172 50.3541C27.7738 50.2921 27.6303 50.2298 27.486 50.1702C27.3246 50.1036 27.1622 50.0396 26.9997 49.9759C26.8555 49.9195 26.7111 49.8635 26.5662 49.8093C26.4054 49.7492 26.2437 49.6911 26.0818 49.6342C25.9298 49.5805 25.7777 49.5282 25.6248 49.4772C25.4696 49.4254 25.3142 49.3748 25.1579 49.3256C24.9915 49.2731 24.8243 49.223 24.657 49.1735C24.5132 49.1311 24.3695 49.0888 24.225 49.0488C24.0363 48.9963 23.8467 48.9471 23.6569 48.8985C23.568 48.8756 23.4797 48.8499 23.3902 48.8278L23.3693 33.8211L47.1551 11.4139ZM53.4232 56.6972L42.0817 55.3915L41.0131 55.2685L40.9912 39.6991L53.3995 39.6816L53.4232 56.6972ZM91.2284 60.6644L72.3933 77.6044C70.8238 78.8771 68.9411 79.7189 66.9455 80.0392L37.7751 84.244C37.769 84.245 37.7631 84.2459 37.7569 84.2468L37.7367 84.25C36.8529 84.3899 35.9326 84.3309 35.001 84.0752L14.24 76.2132V50.7116H16.5602C18.5354 50.7116 20.4972 50.9397 22.4076 51.3826C22.4786 51.3991 22.5495 51.416 22.6204 51.433C22.8551 51.4896 23.0893 51.5479 23.3223 51.611C23.3427 51.6166 23.3629 51.6225 23.3834 51.6281C23.617 51.6919 23.8496 51.7592 24.0816 51.8296C24.1231 51.8422 24.1649 51.8546 24.2063 51.8674C24.453 51.9437 24.6987 52.0233 24.9431 52.1068C24.9683 52.1155 24.9934 52.1244 25.0186 52.1331C25.5275 52.3088 26.0315 52.5005 26.5291 52.7079C26.5562 52.7193 26.5833 52.7306 26.6104 52.7421C26.8585 52.8464 27.1051 52.9542 27.35 53.0662C27.3565 53.0692 27.3632 53.0724 27.3696 53.0755C27.6064 53.1842 27.8415 53.2971 28.0751 53.413C28.1026 53.4266 28.1302 53.4399 28.1577 53.4536C28.3859 53.5678 28.6123 53.686 28.8373 53.8069C28.8798 53.8298 28.9221 53.8531 28.9646 53.8761C29.1917 53.9999 29.4175 54.1261 29.6411 54.2569C32.868 56.1445 36.3807 57.367 40.082 57.8908C40.0937 57.8925 40.1052 57.894 40.1169 57.8953L55.3097 59.6444C55.3937 59.6565 55.4772 59.6704 55.5602 59.686C57.7967 60.1061 59.562 61.7587 60.1526 63.9109C60.2402 64.2297 60.3018 64.5596 60.3356 64.8978L60.3959 65.5045L31.9219 63.0099C31.1763 62.9447 30.518 63.4964 30.4527 64.2423C30.3872 64.9884 30.9392 65.6461 31.6851 65.7114L61.7886 68.349C61.7958 68.3495 61.8029 68.3493 61.8099 68.3499C61.817 68.3505 61.8238 68.3516 61.8311 68.3521L67.5083 68.6707C67.5337 68.6722 67.5589 68.6728 67.5842 68.6728C67.6111 68.6728 67.6376 68.6685 67.6643 68.6668C67.6945 68.665 67.7248 68.6638 67.7549 68.6601C67.7953 68.6549 67.8348 68.6462 67.8745 68.6375C67.9029 68.6312 67.9315 68.6266 67.9593 68.6184C68.0027 68.606 68.0445 68.5891 68.0866 68.5722C68.1092 68.5631 68.1326 68.5562 68.1549 68.5458C68.2182 68.5165 68.2798 68.4828 68.3384 68.4434L73.1574 65.2184L73.158 65.2179L87.3898 55.6934C88.8217 54.7309 90.7762 55.1085 91.7468 56.535C92.6341 57.8387 92.4138 59.6116 91.2284 60.6644Z" fill="#0C1E21"/>
</svg>
