<svg width="18" height="18" viewBox="0 0 18 18" fill="none" xmlns="http://www.w3.org/2000/svg">
<g clip-path="url(#clip0_320_2690)">
<path d="M16.2619 5.10187L10.6369 1.08562C9.65812 0.388125 8.34188 0.388125 7.36312 1.08562L1.73812 5.10187C1.00125 5.63062 0.5625 6.48563 0.5625 7.39125V14.625C0.5625 16.1781 1.82194 17.4375 3.375 17.4375H5.625C6.24656 17.4375 6.75 16.9341 6.75 16.3125V11.8125C6.75 11.1938 7.25625 10.6875 7.875 10.6875H10.125C10.7437 10.6875 11.25 11.1938 11.25 11.8125V16.3125C11.25 16.9341 11.7534 17.4375 12.375 17.4375H14.625C16.1781 17.4375 17.4375 16.1781 17.4375 14.625V7.39125C17.4375 6.48563 16.9988 5.63062 16.2619 5.10187Z" fill="#1E8A8A"/>
</g>
<defs>
<clipPath id="clip0_320_2690">
<rect width="18" height="18" fill="white"/>
</clipPath>
</defs>
</svg>
