<svg width="95" height="95" viewBox="0 0 95 95" fill="none" xmlns="http://www.w3.org/2000/svg">
<path d="M93.9891 58.9915C92.1821 56.336 88.5432 55.6331 85.8794 57.4233L73.7558 65.5369L73.7206 40.2821L77.9325 44.2277C78.8281 45.0666 79.9959 45.5282 81.222 45.5282C81.2243 45.5282 81.2269 45.5282 81.2293 45.5282C82.553 45.5264 83.831 44.9716 84.7357 44.0058C85.6147 43.0675 86.0758 41.8433 86.0338 40.5582C85.9919 39.2731 85.4519 38.0813 84.5136 37.2024L76.5286 29.7222C75.982 29.2101 75.1238 29.2381 74.6119 29.7848C74.1 30.3314 74.128 31.1894 74.6745 31.7015L82.6595 39.1816C83.0692 39.5653 83.3048 40.0856 83.3232 40.6465C83.3413 41.2074 83.1402 41.742 82.7563 42.1515C82.3555 42.5793 81.8119 42.8154 81.2252 42.8161C81.2241 42.8161 81.2231 42.8161 81.222 42.8161C80.6871 42.8161 80.1774 42.6146 79.7865 42.2483L79.7863 42.2481L48.0796 12.546C47.5571 12.0567 46.7441 12.0574 46.2229 12.5486L14.5986 42.3396C14.1903 42.7244 13.6562 42.9259 13.0952 42.9104C12.5341 42.8937 12.0132 42.6593 11.6284 42.2505C11.2436 41.8422 11.0408 41.3082 11.0577 40.7472C11.0744 40.1862 11.3087 39.6653 11.7171 39.2805L45.705 7.2629C46.5107 6.50383 47.7746 6.50197 48.5823 7.259L68.4668 25.8864C69.0132 26.3983 69.8714 26.3705 70.3835 25.8239C70.8954 25.2773 70.8674 24.4193 70.321 23.9072L50.4366 5.27978C48.5862 3.54603 45.6911 3.54992 43.8455 5.28887L32.9652 15.5385L32.9622 13.7103C32.9615 13.134 32.7362 12.5925 32.3282 12.1858C31.9209 11.7797 31.3802 11.5561 30.805 11.5561C30.8039 11.5561 30.803 11.5561 30.8019 11.5561L23.0188 11.567C22.4425 11.5678 21.9012 11.793 21.4943 12.201C21.0876 12.6091 20.8638 13.151 20.8647 13.7275L20.8863 26.9175L9.85755 37.3068C8.92165 38.1884 8.38523 39.3816 8.34683 40.6667C8.30842 41.9518 8.77284 43.1749 9.65438 44.1105C10.5357 45.0464 11.729 45.583 13.0143 45.6214C13.0634 45.6229 13.1126 45.6236 13.1618 45.6236C14.3929 45.6236 15.5587 45.1616 16.4584 44.3136L20.6608 40.3548L20.6775 52.2838C19.3178 52.0858 17.9422 51.9819 16.5602 51.9819H14.24V51.1689C14.24 48.4393 12.0192 46.2185 9.28959 46.2185H4.95039C2.22081 46.2183 0 48.4389 0 51.1687V72.4171C0 73.166 0.607109 73.7731 1.35598 73.7731C2.10484 73.7731 2.71195 73.166 2.71195 72.4171V51.1687C2.71195 49.9344 3.71613 48.9302 4.95039 48.9302H9.2894C10.5237 48.9302 11.5278 49.9344 11.5278 51.1687V53.3377V81.1319V83.2796C11.5278 84.5139 10.5237 85.518 9.2894 85.518H4.95039C3.71613 85.518 2.71195 84.5139 2.71195 83.2796V80.9068C2.71195 80.158 2.10484 79.5508 1.35598 79.5508C0.607109 79.5508 0 80.158 0 80.9068V83.2796C0 86.0092 2.22081 88.23 4.95039 88.23H9.2894C12.019 88.23 14.2398 86.0094 14.2398 83.2796V83.0954L34.0978 90.6152C34.1345 90.6291 34.1718 90.6414 34.2096 90.6519C35.073 90.8957 35.936 91.018 36.788 91.018C37.2489 91.018 37.7066 90.9822 38.1598 90.9106L67.3428 86.7039C67.3496 86.7029 67.3563 86.7018 67.3632 86.7007C69.8443 86.3046 72.185 85.2557 74.1319 83.6678C74.1488 83.654 74.1655 83.6397 74.1816 83.6251L93.0352 66.6683C95.2308 64.7192 95.6407 61.4188 93.9891 58.9915ZM30.251 14.269L30.2573 18.0894L23.594 24.3664L23.5774 14.2781L30.251 14.269ZM47.1551 15.396L71.0049 37.738L71.0463 67.35L67.2071 69.9195L63.1416 69.6914L63.0342 68.6116C62.6558 64.8082 59.8481 61.7487 56.1355 61.0186L56.111 43.4019C56.1092 42.05 55.0085 40.9513 53.6568 40.9513C53.6557 40.9513 53.6548 40.9513 53.6535 40.9513L40.7294 40.9695C40.0739 40.9705 39.4578 41.2265 38.9951 41.6908C38.5321 42.1548 38.2778 42.7716 38.2787 43.4269L38.3002 58.7867C35.7402 58.2015 33.2958 57.2349 31.0105 55.8981C30.7253 55.7313 30.4373 55.5702 30.1469 55.4136C30.0337 55.3526 29.9187 55.2952 29.8046 55.2357C29.6279 55.1435 29.4517 55.0507 29.2732 54.9622C29.131 54.8917 28.9872 54.8249 28.844 54.7568C28.692 54.6846 28.5403 54.6117 28.3872 54.5421C28.2313 54.4714 28.0742 54.4041 27.9172 54.3361C27.7738 54.2742 27.6303 54.2118 27.486 54.1523C27.3246 54.0857 27.1622 54.0216 26.9997 53.958C26.8555 53.9016 26.7111 53.8456 26.5662 53.7914C26.4054 53.7313 26.2437 53.6732 26.0818 53.6162C25.9298 53.5626 25.7777 53.5103 25.6248 53.4593C25.4696 53.4075 25.3142 53.3568 25.1579 53.3077C24.9915 53.2551 24.8243 53.2051 24.657 53.1555C24.5132 53.1132 24.3695 53.0709 24.225 53.0308C24.0363 52.9783 23.8467 52.9291 23.6569 52.8805C23.568 52.8577 23.4797 52.8319 23.3902 52.8098L23.3693 37.8032L47.1551 15.396ZM53.4232 60.6792L42.0817 59.3736L41.0131 59.2505L40.9912 43.6811L53.3995 43.6637L53.4232 60.6792ZM91.2284 64.6464L72.3933 81.5865C70.8238 82.8592 68.9411 83.701 66.9455 84.0212L37.7751 88.2261C37.769 88.227 37.7631 88.228 37.7569 88.2289L37.7367 88.232C36.8529 88.3719 35.9326 88.3129 35.001 88.0573L14.24 80.1953V54.6937H16.5602C18.5354 54.6937 20.4972 54.9217 22.4076 55.3646C22.4786 55.3811 22.5495 55.398 22.6204 55.4151C22.8551 55.4717 23.0893 55.53 23.3223 55.593C23.3427 55.5986 23.3629 55.6045 23.3834 55.6101C23.617 55.6739 23.8496 55.7413 24.0816 55.8116C24.1231 55.8242 24.1649 55.8367 24.2063 55.8495C24.453 55.9257 24.6987 56.0053 24.9431 56.0888C24.9683 56.0975 24.9934 56.1064 25.0186 56.1152C25.5275 56.2909 26.0315 56.4825 26.5291 56.69C26.5562 56.7013 26.5833 56.7126 26.6104 56.7241C26.8585 56.8284 27.1051 56.9362 27.35 57.0483C27.3565 57.0513 27.3632 57.0544 27.3696 57.0576C27.6064 57.1663 27.8415 57.2791 28.0751 57.3951C28.1026 57.4086 28.1302 57.422 28.1577 57.4357C28.3859 57.5498 28.6123 57.668 28.8373 57.789C28.8798 57.8118 28.9221 57.8352 28.9646 57.8582C29.1917 57.982 29.4175 58.1081 29.6411 58.2389C32.868 60.1265 36.3807 61.3491 40.082 61.8729C40.0937 61.8745 40.1052 61.876 40.1169 61.8773L55.3097 63.6265C55.3937 63.6385 55.4772 63.6525 55.5602 63.668C57.7967 64.0881 59.562 65.7408 60.1526 67.8929C60.2402 68.2117 60.3018 68.5416 60.3356 68.8799L60.3959 69.4866L31.9219 66.9919C31.1763 66.9268 30.518 67.4784 30.4527 68.2243C30.3872 68.9704 30.9392 69.6282 31.6851 69.6935L61.7886 72.331C61.7958 72.3316 61.8029 72.3314 61.8099 72.332C61.817 72.3325 61.8238 72.3336 61.8311 72.3342L67.5083 72.6528C67.5337 72.6543 67.5589 72.6548 67.5842 72.6548C67.6111 72.6548 67.6376 72.6506 67.6643 72.6489C67.6945 72.647 67.7248 72.6459 67.7549 72.6422C67.7953 72.637 67.8348 72.6283 67.8745 72.6196C67.9029 72.6133 67.9315 72.6086 67.9593 72.6005C68.0027 72.588 68.0445 72.5711 68.0866 72.5542C68.1092 72.5452 68.1326 72.5383 68.1549 72.5279C68.2182 72.4986 68.2798 72.4648 68.3384 72.4255L73.1574 69.2005L73.158 69.1999L87.3898 59.6754C88.8217 58.713 90.7762 59.0906 91.7468 60.5171C92.6341 61.8207 92.4138 63.5936 91.2284 64.6464Z" fill="white"/>
</svg>
