<svg width="18" height="18" viewBox="0 0 18 18" fill="none" xmlns="http://www.w3.org/2000/svg">
<g clip-path="url(#clip0_320_2614)">
<path d="M13.1275 0H4.87243C2.18573 0 0 2.18573 0 4.87243V13.1277C0 15.8142 2.18573 18 4.87243 18H13.1277C15.8142 18 18 15.8142 18 13.1277V4.87243C18 2.18573 15.8142 0 13.1275 0ZM16.9447 13.1277C16.9447 15.2324 15.2324 16.9447 13.1275 16.9447H4.87243C2.76759 16.9447 1.05523 15.2324 1.05523 13.1277V4.87243C1.05523 2.76759 2.76759 1.05523 4.87243 1.05523H13.1277C15.2324 1.05523 16.9447 2.76759 16.9447 4.87243V13.1277Z" fill="#0C1E21"/>
<path d="M8.99985 4.07825C6.28596 4.07825 4.07812 6.28609 4.07812 8.99998C4.07812 11.7139 6.28596 13.9217 8.99985 13.9217C11.7137 13.9217 13.9216 11.7139 13.9216 8.99998C13.9216 6.28609 11.7137 4.07825 8.99985 4.07825ZM8.99985 12.8665C6.86796 12.8665 5.13336 11.132 5.13336 8.99998C5.13336 6.86809 6.86796 5.13349 8.99985 5.13349C11.1319 5.13349 12.8663 6.86809 12.8663 8.99998C12.8663 11.132 11.1319 12.8665 8.99985 12.8665Z" fill="#0C1E21"/>
<path d="M14.0402 2.33033C13.2382 2.33033 12.5859 2.98278 12.5859 3.78465C12.5859 4.58665 13.2382 5.23909 14.0402 5.23909C14.8422 5.23909 15.4947 4.58665 15.4947 3.78465C15.4947 2.98265 14.8422 2.33033 14.0402 2.33033ZM14.0402 4.18372C13.8202 4.18372 13.6412 4.00465 13.6412 3.78465C13.6412 3.56451 13.8202 3.38557 14.0402 3.38557C14.2604 3.38557 14.4395 3.56451 14.4395 3.78465C14.4395 4.00465 14.2604 4.18372 14.0402 4.18372Z" fill="#0C1E21"/>
</g>
<defs>
<clipPath id="clip0_320_2614">
<rect width="18" height="18" fill="white"/>
</clipPath>
</defs>
</svg>
