<svg width="18" height="18" viewBox="0 0 18 18" fill="none" xmlns="http://www.w3.org/2000/svg">
<g clip-path="url(#clip0_320_2621)">
<path d="M4.69565 17.8165H0V5.68619H4.69565V17.8165ZM0.782561 17.034H3.91309V6.46875H0.782561V17.034Z" fill="#0C1E21"/>
<path d="M18.0009 17.8165H13.3052V11.1644C13.3052 10.5161 12.7796 9.99049 12.1313 9.99049C11.4829 9.99049 10.9574 10.5161 10.9574 11.1644V17.8165H6.26172V5.68619H10.9574V6.47362C11.6661 5.96118 12.5186 5.68562 13.3932 5.68619C15.9317 5.68619 18.0009 7.74541 18.0009 10.2791V17.8165ZM14.0878 17.034H17.2181V10.2791C17.2128 8.17115 15.5011 6.46603 13.3932 6.46875C12.4296 6.46875 11.5247 6.87472 10.8498 7.60841L10.1747 8.34698V6.46875H7.04428V17.034H10.1747V11.1644C10.1747 10.0838 11.0507 9.20793 12.1313 9.20793C13.2118 9.20793 14.0878 10.0838 14.0878 11.1644V17.034Z" fill="#0C1E21"/>
<path d="M2.34783 4.90348C1.05111 4.90348 0 3.85238 0 2.55566C0 1.25908 1.05111 0.207832 2.34783 0.207832C3.64455 0.207832 4.69565 1.25908 4.69565 2.55566C4.69293 3.85123 3.6434 4.90091 2.34783 4.90348ZM2.34783 0.990537C1.48344 0.990537 0.782561 1.69127 0.782561 2.55566C0.782561 3.42019 1.48344 4.12092 2.34783 4.12092C3.21221 4.12092 3.91309 3.42019 3.91309 2.55566C3.91309 1.69127 3.21221 0.990537 2.34783 0.990537Z" fill="#0C1E21"/>
</g>
<defs>
<clipPath id="clip0_320_2621">
<rect width="18" height="18" fill="white"/>
</clipPath>
</defs>
</svg>
