<svg width="18" height="14" viewBox="0 0 18 14" fill="none" xmlns="http://www.w3.org/2000/svg">
<path d="M1.6875 0C0.755859 0 0 0.755859 0 1.6875C0 2.21836 0.249609 2.71758 0.675 3.0375L8.325 8.775C8.72578 9.07383 9.27422 9.07383 9.675 8.775L17.325 3.0375C17.7504 2.71758 18 2.21836 18 1.6875C18 0.755859 17.2441 0 16.3125 0H1.6875ZM0 3.9375V11.25C0 12.491 1.00898 13.5 2.25 13.5H15.75C16.991 13.5 18 12.491 18 11.25V3.9375L10.35 9.675C9.54844 10.2762 8.45156 10.2762 7.65 9.675L0 3.9375Z" fill="white"/>
</svg>
