<svg width="18" height="14" viewBox="0 0 18 14" fill="none" xmlns="http://www.w3.org/2000/svg">
<path d="M16.3239 0H1.57297C0.707417 0 0 0.759086 0 1.69531V11.8672C0 12.8038 0.707872 13.5625 1.57297 13.5625H16.3239C17.1895 13.5625 17.8969 12.8034 17.8969 11.8672V1.69531C17.8969 0.75886 17.1891 0 16.3239 0ZM16.0824 1.13021C15.5738 1.68013 9.60019 8.13938 9.35477 8.40476C9.14979 8.62635 8.74722 8.6265 8.54214 8.40476L1.81451 1.13021H16.0824ZM1.04865 11.6594V1.90308L5.5601 6.78125L1.04865 11.6594ZM1.81451 12.4323L6.30041 7.58174L7.79945 9.20265C8.41375 9.86687 9.4834 9.86661 10.0975 9.20265L11.5965 7.58178L16.0824 12.4323H1.81451ZM16.8483 11.6594L12.3368 6.78125L16.8483 1.90308V11.6594Z" fill="#0C1E21"/>
</svg>
