<svg width="18" height="24" viewBox="0 0 18 24" fill="none" xmlns="http://www.w3.org/2000/svg">
<path d="M18 24H0V0H18V24Z" stroke="white"/>
<g clip-path="url(#clip0_320_13181)">
<path d="M5.79727 3.86503C5.52656 3.21112 4.81289 2.86307 4.13086 3.0494L1.03711 3.89315C0.425391 4.0619 0 4.61737 0 5.25018C0 13.9478 7.05234 21.0002 15.75 21.0002C16.3828 21.0002 16.9383 20.5748 17.107 19.9631L17.9508 16.8693C18.1371 16.1873 17.7891 15.4736 17.1352 15.2029L13.7602 13.7967C13.1871 13.5576 12.5227 13.7228 12.1324 14.2045L10.7121 15.9377C8.23711 14.767 6.2332 12.7631 5.0625 10.2881L6.7957 8.87128C7.27734 8.47753 7.44258 7.81659 7.20352 7.24354L5.79727 3.86854V3.86503Z" fill="black"/>
</g>
<defs>
<clipPath id="clip0_320_13181">
<path d="M0 3H18V21H0V3Z" fill="white"/>
</clipPath>
</defs>
</svg>
