<svg width="56" height="45" viewBox="0 0 56 45" fill="none" xmlns="http://www.w3.org/2000/svg">
<path d="M0.0507046 43.3938C-0.0886406 42.2791 1.03773 42.0004 1.61834 42.0004C8.44625 41.5823 14.2175 37.9942 16.2496 36.2524C22.9381 30.2921 23.6813 23.2019 23.2168 20.4019C22.9381 21.2379 21.2428 22.7243 20.4299 23.3629C13.4627 28.3794 6.37929 24.5241 3.70851 21.9695C-2.56202 14.8629 0.515184 7.39631 2.8376 4.55135C10.0836 -2.41591 17.585 0.138756 20.4299 2.28699C26.1431 6.04931 26.4102 16.6279 25.8296 21.447C24.1574 39.8405 9.10814 44.555 1.79251 44.6131C1.26997 44.6712 0.19005 44.5086 0.0507046 43.3938Z" fill="#1E8A8A"/>
<path d="M30.0097 43.3938C29.8703 42.2791 30.9967 42.0004 31.5773 42.0004C38.4052 41.5823 44.1764 37.9942 46.2086 36.2524C52.8971 30.2921 53.6403 23.2019 53.1758 20.4019C52.8971 21.2379 51.2018 22.7243 50.3889 23.3629C43.4217 28.3794 36.3383 24.5241 33.6675 21.9695C27.397 14.8629 30.4742 7.39631 32.7966 4.55135C40.0425 -2.41591 47.544 0.138756 50.3889 2.28699C56.1021 6.04931 56.3691 16.6279 55.7885 21.447C54.1164 39.8405 39.0671 44.555 31.7515 44.6131C31.229 44.6712 30.149 44.5086 30.0097 43.3938Z" fill="#1E8A8A"/>
</svg>
