<svg width="59" height="50" viewBox="0 0 59 50" fill="none" xmlns="http://www.w3.org/2000/svg">
<g clip-path="url(#clip0_320_17867)">
<path d="M52.8542 49.985H6.14583C2.75825 49.985 0 47.2268 0 43.8392V38.9225C0 38.244 0.550667 37.6934 1.22917 37.6934H2.45833C5.16988 37.6934 7.375 35.4882 7.375 32.7767C7.375 30.0652 5.16988 27.86 2.45833 27.86H1.22917C0.550667 27.86 0 27.3094 0 26.6309V21.7142C0 18.3266 2.75825 15.5684 6.14583 15.5684H52.8542C56.2417 15.5684 59 18.3266 59 21.7142V26.6309C59 27.3094 58.4493 27.86 57.7708 27.86H56.5417C53.8301 27.86 51.625 30.0652 51.625 32.7767C51.625 34.0894 52.1363 35.3235 53.0656 36.2528C53.9924 37.182 55.2265 37.6934 56.5392 37.6934H57.7684C58.4469 37.6934 58.9975 38.244 58.9975 38.9225V43.8392C59 47.2268 56.2417 49.985 52.8542 49.985ZM2.45833 40.1517V43.8392C2.45833 45.8722 4.11279 47.5267 6.14583 47.5267H52.8542C54.8872 47.5267 56.5417 45.8722 56.5417 43.8392V40.1517C54.5725 40.1517 52.719 39.3847 51.3275 37.9933C49.9337 36.5994 49.1667 34.7458 49.1667 32.7767C49.1667 28.7106 52.4756 25.4017 56.5417 25.4017V21.7142C56.5417 19.6812 54.8872 18.0267 52.8542 18.0267H6.14583C4.11279 18.0267 2.45833 19.6812 2.45833 21.7142V25.4017C6.52442 25.4017 9.83333 28.7106 9.83333 32.7767C9.83333 36.8428 6.52442 40.1517 2.45833 40.1517Z" fill="white"/>
<path d="M20.8952 20.485C20.2167 20.485 19.666 19.9344 19.666 19.2559V16.7975C19.666 16.119 20.2167 15.5684 20.8952 15.5684C21.5737 15.5684 22.1243 16.119 22.1243 16.7975V19.2559C22.1243 19.9344 21.5737 20.485 20.8952 20.485Z" fill="white"/>
<path d="M20.8952 41.2842C20.2167 41.2842 19.666 40.7335 19.666 40.055V35.898C19.666 35.2195 20.2167 34.6688 20.8952 34.6688C21.5737 34.6688 22.1243 35.217 22.1243 35.898V40.0575C22.1243 40.736 21.5737 41.2842 20.8952 41.2842ZM20.8952 30.8854C20.2167 30.8854 19.666 30.3347 19.666 29.6562V25.4967C19.666 24.8182 20.2167 24.2676 20.8952 24.2676C21.5737 24.2676 22.1243 24.8182 22.1243 25.4967V29.6562C22.1243 30.3347 21.5737 30.8854 20.8952 30.8854Z" fill="white"/>
<path d="M20.8952 49.985C20.2167 49.985 19.666 49.4344 19.666 48.7559V46.2975C19.666 45.619 20.2167 45.0684 20.8952 45.0684C21.5737 45.0684 22.1243 45.619 22.1243 46.2975V48.7559C22.1243 49.4344 21.5737 49.985 20.8952 49.985Z" fill="white"/>
<path d="M6.14515 18.0252C5.64611 18.0252 5.17657 17.7204 4.99465 17.2263C4.75619 16.5896 5.07824 15.8816 5.71494 15.6456L44.8024 1.05044C46.7027 0.337522 48.9349 1.40444 49.5839 3.31948L54.0163 16.4003C54.2326 17.0444 53.8884 17.7401 53.2468 17.9589C52.6101 18.1776 51.907 17.831 51.6882 17.1894L47.2559 4.10861C47.0395 3.46944 46.2971 3.12036 45.6604 3.35144L6.5729 17.9466C6.43278 18.0006 6.28773 18.0252 6.14515 18.0252Z" fill="white"/>
</g>
<defs>
<clipPath id="clip0_320_17867">
<rect width="59" height="50" fill="white"/>
</clipPath>
</defs>
</svg>
