<svg width="48" height="48" viewBox="0 0 48 48" fill="none" xmlns="http://www.w3.org/2000/svg">
<g clip-path="url(#clip0_320_4510)">
<path d="M24 0.299805C37.0895 0.299806 47.7002 10.9105 47.7002 24C47.7002 37.0895 37.0895 47.7002 24 47.7002C10.9105 47.7002 0.299806 37.0895 0.299805 24C0.299805 10.9105 10.9105 0.299805 24 0.299805ZM24 29.7002C17.2438 29.7002 11.53 33.9384 9.22656 39.875L9.15234 40.0674L9.30469 40.2061C13.1922 43.7311 18.3369 45.9004 24 45.9004C29.6631 45.9004 34.8078 43.7315 38.6953 40.2041L38.8477 40.0654L38.7734 39.873C36.4701 33.9386 30.7563 29.7002 24 29.7002ZM24 2.09961C11.9039 2.09961 2.09961 11.9039 2.09961 24C2.09961 29.4901 4.13278 34.4939 7.4707 38.3379L7.77539 38.6895L7.96973 38.2656C10.0567 33.7093 13.9722 30.1868 18.8125 28.6982L19.4209 28.5107L18.8896 28.1611C16.3659 26.4956 14.7003 23.645 14.7002 20.4004C14.7002 15.2645 18.8641 11.0996 24 11.0996C29.1359 11.0996 33.2998 15.2645 33.2998 20.4004C33.2997 23.6451 31.6336 26.4952 29.1123 28.1582L28.582 28.5088L29.1895 28.6953C34.0302 30.1862 37.9462 33.7096 40.0332 38.2637L40.2266 38.6865L40.5322 38.335C43.8652 34.4935 45.9004 29.4901 45.9004 24C45.9004 11.9039 36.0961 2.09961 24 2.09961ZM24 12.9004C19.8575 12.9004 16.5 16.2579 16.5 20.4004C16.5002 24.5427 19.8576 27.9004 24 27.9004C28.1424 27.9004 31.4998 24.5427 31.5 20.4004C31.5 16.2579 28.1425 12.9004 24 12.9004Z" fill="black" stroke="white" stroke-width="0.6"/>
</g>
<defs>
<clipPath id="clip0_320_4510">
<rect width="48" height="48" fill="white"/>
</clipPath>
</defs>
</svg>
